<?xml version="1.0" encoding="utf-8"?>
<!-- Generator: Adobe Illustrator 28.1.0, SVG Export Plug-In . SVG Version: 6.00 Build 0)  -->
<svg version="1.1" id="Calque_1" xmlns="http://www.w3.org/2000/svg" xmlns:xlink="http://www.w3.org/1999/xlink" x="0px" y="0px"
	 viewBox="0 0 2000 699" style="enable-background:new 0 0 2000 699;" xml:space="preserve">
<style type="text/css">
	.st0{fill:#FFFFFF;}
	.st1{fill:#FBA026;}
</style>
<path class="st0" d="M894.3,617.2c-2.4-4-5.8-7.1-10-9.2c-4.3-2.3-9.1-3.4-14.4-3.4h-23.7h-3.4h-6.1v89.5h9.5v-35.9h23.7
	c5.4,0,10.2-1.1,14.4-3.3c4.3-2.3,7.6-5.4,10-9.4c2.5-4.1,3.8-8.8,3.8-14.2C898.1,625.9,896.8,621.2,894.3,617.2z M885.8,641.3
	c-1.6,2.7-3.9,4.8-6.9,6.2c-2.9,1.5-6.1,2.2-9.8,2.2h-23v-36.8h23c3.6,0,6.9,0.8,9.8,2.3c3,1.5,5.2,3.6,6.9,6.4
	c1.7,2.7,2.6,5.9,2.6,9.8C888.4,635.2,887.6,638.5,885.8,641.3z"/>
<path class="st0" d="M983.2,694.1h10.3l-36.3-89.5H950l-36.7,89.5h10.2l9.4-23.3h41L983.2,694.1z M936.3,662.4l17.2-42.7l17.1,42.7
	H936.3z"/>
<path class="st0" d="M1075.9,694.1h12.2l-33.1-40.1c5.3-0.1,9.9-1.1,13.8-3c4.2-2.1,7.3-5,9.5-8.7c2.2-3.7,3.4-8.1,3.4-13
	c0-4.8-1.1-9-3.4-12.8c-2.2-3.7-5.3-6.6-9.5-8.7c-4.2-2.2-9.2-3.3-15-3.3h-22.6h-3.4h-6.1v89.5h9.5v-40.1h12.1L1075.9,694.1z
	 M1031.3,612.9h22.6c5.9,0,10.4,1.6,13.5,4.7c3.1,3,4.7,7,4.7,11.8c0,5-1.6,9.1-4.7,12.1c-3.1,3-7.6,4.4-13.5,4.4h-22.6V612.9z"/>
<polygon class="st0" points="1176.1,604.6 1103.4,604.6 1103.4,613.3 1134.9,613.3 1134.9,694.1 1144.6,694.1 1144.6,613.3 
	1176.1,613.3 "/>
<path class="st0" d="M1325.7,631.3c-2.3-5.6-5.4-10.5-9.5-14.7c-4.1-4.2-8.8-7.4-14.3-9.8c-5.4-2.3-11.2-3.5-17.6-3.5
	c-6.3,0-12.2,1.2-17.6,3.5c-5.4,2.3-10.1,5.6-14.2,9.8c-4.1,4.2-7.2,9-9.5,14.6c-2.2,5.6-3.4,11.6-3.4,18.1c0,6.4,1.1,12.5,3.4,18.1
	c2.3,5.6,5.6,10.5,9.6,14.7c4.1,4.2,8.8,7.5,14.2,9.9c5.5,2.3,11.4,3.5,17.7,3.5c6.3,0,12.2-1.2,17.6-3.5c5.4-2.4,10.1-5.7,14.1-9.9
	c4.1-4.2,7.2-9,9.5-14.6c2.2-5.6,3.4-11.7,3.4-18.1C1329.1,642.9,1328,636.8,1325.7,631.3z M1314.7,668.2c-3,5.6-7.1,9.9-12.4,13.1
	c-5.2,3.2-11.2,4.8-18,4.8c-4.9,0-9.5-0.9-13.8-2.7c-4.2-1.8-7.9-4.4-11.1-7.7c-3.1-3.4-5.5-7.3-7.3-11.8c-1.7-4.5-2.6-9.4-2.6-14.7
	c0-7.1,1.5-13.4,4.4-19c3-5.6,7.2-9.9,12.4-13c5.3-3.2,11.3-4.8,18-4.8c5.1,0,9.8,0.9,13.9,2.7c4.2,1.8,7.9,4.4,11.1,7.8
	c3.1,3.3,5.6,7.2,7.3,11.7c1.7,4.4,2.6,9.3,2.6,14.6C1319.2,656.4,1317.7,662.7,1314.7,668.2z"/>
<polygon class="st0" points="1417.1,613.3 1417.1,604.6 1370.1,604.6 1366.8,604.6 1360.6,604.6 1360.6,694.1 1370.1,694.1 
	1370.1,653.7 1414.9,653.7 1414.9,644.9 1370.1,644.9 1370.1,613.3 "/>
<g>
	<polygon class="st0" points="1745.3,611.1 1745.3,641.9 1760.7,641.9 1760.7,626.5 1837.4,626.5 1837.4,641.9 1852.7,641.9 
		1852.7,611.1 	"/>
	<polygon class="st0" points="1806.7,635.5 1791.4,635.5 1791.4,666.3 1776,666.3 1776,681.8 1822.1,681.8 1822.1,666.3 
		1806.7,666.3 	"/>
</g>
<g>
	<polygon class="st0" points="1730,626.5 1730,611.1 1699.3,611.1 1699.3,650.9 1714.7,666.3 1714.7,626.5 	"/>
	<path class="st0" d="M1700.4,665.2l-49.5-49.9c-2.7-2.8-6.3-4.1-9.9-4.1l-29.8-0.1v15.4h15.3v39.8h-15.4v15.4h30.7v-39.8
		l-15.3-15.4h11.4c1.1,0,2.1,0.4,2.9,1.2l49.5,49.9c2.7,2.8,6.3,4.1,9.9,4.1l29.8,0.1v-15.4h-15.3h-11.4
		C1702.2,666.3,1701.2,665.9,1700.4,665.2z"/>
</g>
<g>
	<polygon class="st0" points="1971.7,626.5 1987,626.5 1987,611.1 1956.3,611.1 1956.3,626.5 1971.7,626.5 1956.3,641.9 
		1956.3,681.8 1987,681.8 1987,666.3 1971.7,666.3 1971.7,641.9 	"/>
	<path class="st0" d="M1897.9,611.1l-29.9-0.1v15.4h15.4v39.8h-15.4v15.4h30.7v-39.8l-15.3-15.4h11.3c1.1,0,2.1,0.4,2.9,1.2
		l36.4,36.6l11.3-11.3l-37.4-37.7C1905.1,612.5,1901.5,611.1,1897.9,611.1z"/>
</g>
<path class="st0" d="M1579,666.4c2.5-6.1,3.9-12.9,3.9-20c0-28.8-23.2-52.1-51.8-52.1c-28.6,0-51.8,23.3-51.8,52.1
	c0,28.8,23.2,52.1,51.8,52.1v-16.7c-19.4,0-35.2-15.8-35.2-35.4c0-19.5,15.7-35.4,35.2-35.4c19.5,0,35.2,15.8,35.2,35.4
	c0,6.9-1.9,13.3-5.3,18.7c-0.4,0.6-1.2,0.8-1.8,0.3c-0.1-0.1-0.1-0.1-0.2-0.2l-21.5-21.6c-2.7-2.8-6.3-4.1-9.9-4.1l-15.8-0.1v15.4
	h12.6c1.1,0,2.1,0.4,2.9,1.2l21.4,21.6c2.7,2.8,6.3,4.1,9.9,4.1l37,0.1v-15.3H1579z"/>
<path class="st1" d="M337.7,417.8c46.6-19.2,68.8-72.4,49.5-118.8c-19.3-46.4-72.8-68.4-119.4-49.2s-68.8,72.4-49.5,118.8
	C237.6,415,291,437,337.7,417.8z"/>
<path class="st1" d="M566.3,138L344.7,11c-25.6-14.7-57.3-14.7-82.9,0L41,138c-25.7,14.7-41,41.9-41,71.4v253.7
	c0,29.5,15.3,56.7,40.9,71.4L262,661.4c25.6,14.7,57,14.7,82.6,0l221.8-126.9c25.7-14.7,41.9-41.9,41.9-71.4V209.4
	C608.3,179.9,592,152.7,566.3,138z M401.2,466c-0.3,0.2-0.2,0.2-0.4,0.4c-16.7,12.5-35.6,21.5-54.7,26.6l0.2,0.3
	c-9.8,2.5-20,4.2-30.5,4.8c-10.1,0.6-20,0.3-29.6-0.9c-81.2-6.6-147-71.6-152.2-154.9C128.3,251,198.1,172.5,290,166.9
	c91.8-5.6,170.9,64.2,176.5,155.6c0,0.2,1.1,14.3,1.1,14.3c5.1,82.6,31.1,101.5,48,118.2C481.4,433.2,435.5,440.2,401.2,466z
	 M529.4,473C529.4,473,529.3,472.9,529.4,473c0.1,0,0.1,0,0.1,0C529.4,473,529.4,473,529.4,473z"/>
<path class="st0" d="M467.6,336.8c0,0-1.1-14.1-1.1-14.3c-5.6-91.3-84.7-161.2-176.5-155.6c-91.8,5.6-161.7,84-156.1,175.4
	c5.2,83.3,71,148.3,152.2,154.9c9.7,1.2,19.6,1.6,29.6,0.9c10.5-0.6,20.7-2.3,30.5-4.8l-0.2-0.3c19.1-5.1,38-14,54.7-26.6
	c0.3-0.2,0.2-0.2,0.4-0.4c34.4-25.8,80.2-32.8,114.4-11.1C498.7,438.3,472.7,419.4,467.6,336.8z M302.7,424.8
	c-50.5,0-91.4-40.7-91.4-90.9c0-50.2,40.9-90.9,91.4-90.9s91.4,40.7,91.4,90.9C394.1,384,353.2,424.8,302.7,424.8z"/>
<path class="st0" d="M870,499.3V385.2c-7,12.2-16.1,21.3-27.3,27.4c-11.2,6.1-23.9,9.2-38.2,9.2c-12.1,0-23.3-2.6-33.5-7.7
	c-10.2-5.1-19-12.1-26.4-21c-7.4-8.8-13.2-19.2-17.3-31c-4.1-11.8-6.2-24.6-6.2-38.2c0-13.6,2.2-26.3,6.7-38
	c4.5-11.7,10.7-21.9,18.7-30.6c8-8.7,17.5-15.6,28.4-20.6c10.9-5,22.7-7.5,35.3-7.5c14.6,0,27.4,3.3,38.6,9.9s20.3,15.2,27.3,26
	v-32.6h42.6v268.9L870,499.3L870,499.3z M822.6,380.9c10.4,0,19.5-2.9,27.3-8.6c7.8-5.7,14.4-13.1,20-22.2v-44.5
	c-1.5-5.3-3.8-10.2-7.1-14.7c-3.3-4.5-7.1-8.5-11.5-12c-4.4-3.5-9.1-6.2-14.2-8.1c-5.1-1.9-10.2-2.9-15.3-2.9
	c-7.5,0-14.4,1.6-20.6,4.7c-6.2,3.1-11.5,7.3-16,12.7s-8,11.5-10.6,18.5c-2.6,6.9-3.8,14.1-3.8,21.5c0,7.9,1.3,15.2,3.8,21.9
	c2.6,6.7,6.1,12.5,10.6,17.6c4.5,5,9.9,9,16.2,11.8C807.8,379.5,814.9,380.9,822.6,380.9L822.6,380.9z"/>
<path class="st0" d="M1021.4,421.8c-19.7,0-34.6-6.2-44.8-18.6c-10.2-12.4-15.3-30.8-15.3-55.2V230.4h48.8v107.2
	c0,28.9,10.6,43.4,31.7,43.4c9.5,0,18.6-2.8,27.5-8.4c8.9-5.6,16.1-14.2,21.7-25.6V230.4h48.8V363c0,5,0.9,8.6,2.7,10.7
	c1.8,2.2,4.8,3.4,8.9,3.6v40.9c-4.8,0.9-8.9,1.6-12.2,1.8c-3.3,0.2-6.2,0.4-8.9,0.4c-8.7,0-15.8-2-21.3-5.9
	c-5.5-3.9-8.7-9.4-9.6-16.3l-1.1-15.1c-8.5,12.9-19.4,22.6-32.8,29S1037.5,421.8,1021.4,421.8L1021.4,421.8z"/>
<path class="st0" d="M1240.2,421.8c-9.2,0-17.8-1.5-25.8-4.5c-8-3-14.9-7.2-20.8-12.5c-5.8-5.4-10.4-11.6-13.7-18.8
	c-3.3-7.2-4.9-15-4.9-23.7c0-8.6,2-17,6-24.6c4-7.5,9.6-13.9,16.8-19.2c7.1-5.3,15.7-9.4,25.7-12.4c10-3,20.9-4.5,32.8-4.5
	c8.5,0,16.8,0.7,25,2.2c8.1,1.4,15.4,3.5,21.7,6.1v-10.7c0-12.4-3.6-22-10.8-28.7c-7.2-6.7-17.8-10-31.9-10
	c-10.2,0-20.2,1.8-29.8,5.4c-9.7,3.6-19.7,8.8-29.8,15.8l-14.9-30.5c24.5-16,51-24,79.4-24c28.4,0,48.7,6.6,63.9,19.9
	c15.2,13.3,22.8,32.4,22.8,57.5V363c0,5,0.9,8.6,2.7,10.7c1.8,2.2,4.8,3.4,8.9,3.6v40.9c-8.2,1.7-15.4,2.5-21.5,2.5
	c-9.2,0-16.3-2-21.3-6.1c-5-4.1-8.1-9.4-9.3-16.1l-1.1-10.4c-8.5,11-18.8,19.4-30.9,25.1C1267.1,418.9,1254.1,421.8,1240.2,421.8
	L1240.2,421.8z M1254.1,386.7c8.2,0,16.1-1.4,23.5-4.3c7.4-2.9,13.2-6.7,17.3-11.5c5.3-4.1,8-8.6,8-13.6v-21.5
	c-5.8-2.2-12.1-3.9-18.9-5.2c-6.8-1.3-13.3-2-19.7-2c-12.6,0-22.9,2.8-30.9,8.4c-8,5.6-12,12.7-12,21.3c0,8.1,3.1,14.9,9.5,20.3
	C1237.1,384,1244.8,386.7,1254.1,386.7L1254.1,386.7z"/>
<path class="st0" d="M1396.8,156.5h48.8V358c0,6.9,1.7,12.3,5.1,16.1c3.4,3.8,8.2,5.7,14.6,5.7c2.9,0,6.1-0.5,9.6-1.4
	c3.5-0.9,6.8-2.2,10-3.6l6.5,36.6c-6.5,3.1-14.2,5.5-22.9,7.2c-8.7,1.7-16.6,2.5-23.7,2.5c-15.3,0-27.1-4-35.5-12
	c-8.4-8-12.6-19.4-12.6-34.2V156.5z"/>
<path class="st0" d="M1512.5,204.2v-47.7h48.8v47.7H1512.5z M1512.5,418.2V230.3h48.8v187.9H1512.5z"/>
<path class="st0" d="M1617,276.9h-25.1v-36.6h25.1v-11.5c0-10.3,1.8-20.1,5.3-29.4c3.5-9.3,8.6-17.4,15.3-24.2
	c6.7-6.8,14.8-12.3,24.4-16.3c9.6-4.1,20.4-6.1,32.6-6.1c13.8,0,26.5,2.2,38,6.6c11.5,4.4,22.4,10,32.6,16.7l-19.3,35.8
	c-6.3-5.5-13.7-9.9-22.2-13.3c-8.5-3.4-17.1-5-25.8-5c-10.9,0-19,3.4-24.2,10c-5.2,6.7-7.8,14.5-7.8,23.3v13.3h102.3v177.8h-48.8
	V276.9h-53.5v141.2H1617L1617,276.9L1617,276.9z"/>
<path class="st0" d="M1900.2,421.8c-15.5,0-29.5-2.6-41.9-7.9c-12.4-5.3-22.9-12.4-31.5-21.3c-8.6-9-15.2-19.3-19.8-31
	c-4.6-11.7-6.9-24-6.9-36.9c0-12.9,2.3-25.6,6.9-37.3c4.6-11.7,11.2-22,19.8-31c8.6-9,19.1-16.1,31.5-21.3
	c12.4-5.3,26.3-7.9,41.9-7.9s29.4,2.6,41.7,7.9c12.2,5.3,22.7,12.4,31.3,21.3c8.6,9,15.2,19.3,19.8,31c4.6,11.7,6.9,24.2,6.9,37.3
	c0,13.1-2.3,25.2-6.9,36.9c-4.6,11.7-11.2,22-19.7,31c-8.5,9-19,16.1-31.3,21.3C1929.7,419.2,1915.8,421.8,1900.2,421.8z
	 M1850.4,324.6c0,8.4,1.3,15.9,3.8,22.8c2.6,6.8,6.1,12.7,10.6,17.7c4.5,5,9.8,8.9,15.8,11.6c6.1,2.7,12.6,4.1,19.7,4.1
	s13.6-1.4,19.7-4.1c6-2.7,11.3-6.6,15.8-11.6c4.5-5,8-11,10.6-17.9c2.5-6.9,3.8-14.6,3.8-22.9c0-8.4-1.3-15.7-3.8-22.6
	c-2.6-6.9-6.1-12.9-10.6-17.9c-4.5-5-9.8-8.9-15.8-11.6c-6.1-2.7-12.6-4.1-19.7-4.1s-13.6,1.4-19.7,4.3c-6,2.9-11.3,6.8-15.8,11.8
	c-4.5,5-8,11-10.6,17.9C1851.6,309,1850.4,316.5,1850.4,324.6z"/>
</svg>
