<?xml version="1.0" encoding="utf-8"?>
<!-- Generator: Adobe Illustrator 23.1.1, SVG Export Plug-In . SVG Version: 6.00 Build 0)  -->
<svg version="1.1" id="Calque_1" xmlns="http://www.w3.org/2000/svg" xmlns:xlink="http://www.w3.org/1999/xlink" x="0px" y="0px"
	 viewBox="0 0 180 63" style="enable-background:new 0 0 180 63;" xml:space="preserve">
<style type="text/css">
	.st0{fill:#FFFFFF;}
	.st1{fill:#FBA026;}
</style>
<path class="st0" d="M79.2,46.3V36.1c-0.6,1.1-1.4,1.9-2.4,2.4s-2.1,0.8-3.4,0.8c-1.1,0-2.1-0.2-3-0.7s-1.7-1.1-2.3-1.9
	c-0.7-0.8-1.2-1.7-1.5-2.8c-0.4-0.9-0.6-2-0.6-3.2s0.2-2.3,0.6-3.4c0.4-1,1-2,1.7-2.7s1.6-1.4,2.5-1.8c1-0.4,2-0.7,3.1-0.7
	c1.3,0,2.4,0.3,3.4,0.9s1.8,1.4,2.4,2.3v-2.9h3.8v24L79.2,46.3L79.2,46.3z M75,35.7c0.9,0,1.7-0.3,2.4-0.8c0.7-0.5,1.3-1.2,1.8-2v-4
	c-0.1-0.5-0.3-0.9-0.6-1.3c-0.3-0.4-0.6-0.8-1-1.1s-0.8-0.5-1.3-0.7s-0.9-0.3-1.4-0.3c-0.7,0-1.3,0.1-1.8,0.4s-1,0.7-1.4,1.1
	c-0.4,0.5-0.7,1-0.9,1.6c-0.2,0.6-0.3,1.3-0.3,1.9c0,0.7,0.1,1.4,0.3,1.9c0.2,0.6,0.5,1.1,0.9,1.6c0.4,0.4,0.9,0.8,1.4,1.1
	C73.7,35.6,74.3,35.7,75,35.7z"/>
<path class="st0" d="M92.7,39.4c-1.7,0-3.1-0.6-4-1.7c-0.9-1.1-1.4-2.7-1.4-4.9V22.3h4.3v9.6c0,2.6,0.9,3.9,2.8,3.9
	c0.8,0,1.7-0.3,2.4-0.8c0.8-0.5,1.4-1.3,1.9-2.3V22.3h4.3v11.8c0,0.4,0.1,0.8,0.2,1c0.2,0.2,0.4,0.3,0.8,0.3V39
	c-0.4,0.1-0.8,0.1-1.1,0.2c-0.3,0-0.6,0-0.8,0c-0.8,0-1.4-0.2-1.9-0.5c-0.5-0.4-0.8-0.8-0.9-1.5l-0.1-1.3c-0.8,1.2-1.7,2-2.9,2.6
	C95.4,39.1,94.1,39.4,92.7,39.4z"/>
<path class="st0" d="M112.1,39.4c-0.8,0-1.6-0.1-2.3-0.4c-0.7-0.3-1.3-0.6-1.8-1.1s-0.9-1-1.2-1.7c-0.3-0.6-0.4-1.3-0.4-2.1
	s0.2-1.5,0.5-2.2c0.4-0.7,0.9-1.2,1.5-1.7s1.4-0.8,2.3-1.1s1.9-0.4,2.9-0.4c0.8,0,1.5,0.1,2.2,0.2s1.4,0.3,1.9,0.5v-1
	c0-1.1-0.3-2-1-2.6c-0.6-0.6-1.6-0.9-2.8-0.9c-0.9,0-1.8,0.2-2.6,0.5c-0.9,0.3-1.7,0.8-2.6,1.4l-1.3-2.7c2.2-1.4,4.5-2.1,7-2.1
	c2.4,0,4.3,0.6,5.7,1.8c1.3,1.2,2,2.9,2,5.1v5.2c0,0.4,0.1,0.8,0.2,1c0.2,0.2,0.4,0.3,0.8,0.3V39c-0.7,0.1-1.4,0.2-1.9,0.2
	c-0.8,0-1.4-0.2-1.9-0.5c-0.4-0.4-0.7-0.8-0.8-1.4l-0.1-0.9c-0.8,1-1.7,1.7-2.7,2.2C114.4,39.1,113.3,39.4,112.1,39.4z M113.3,36.2
	c0.7,0,1.4-0.1,2.1-0.4c0.7-0.3,1.2-0.6,1.5-1c0.5-0.4,0.7-0.8,0.7-1.2v-1.9c-0.5-0.2-1.1-0.3-1.7-0.5c-0.6-0.1-1.2-0.2-1.7-0.2
	c-1.1,0-2,0.3-2.7,0.8s-1.1,1.1-1.1,1.9c0,0.7,0.3,1.3,0.8,1.8C111.8,36,112.5,36.2,113.3,36.2z"/>
<path class="st0" d="M126,15.7h4.3v18c0,0.6,0.2,1.1,0.5,1.4c0.3,0.3,0.7,0.5,1.3,0.5c0.3,0,0.5,0,0.9-0.1c0.3-0.1,0.6-0.2,0.9-0.3
	l0.6,3.3c-0.6,0.3-1.3,0.5-2,0.6c-0.8,0.1-1.5,0.2-2.1,0.2c-1.4,0-2.4-0.4-3.1-1.1c-0.7-0.7-1.1-1.7-1.1-3.1V15.7H126z"/>
<path class="st0" d="M136.2,20v-4.3h4.3V20H136.2z M136.2,39.1V22.3h4.3V39L136.2,39.1L136.2,39.1z"/>
<path class="st0" d="M145.5,26.5h-2.2v-3.3h2.2v-1c0-0.9,0.2-1.8,0.5-2.6s0.8-1.6,1.4-2.2c0.6-0.6,1.3-1.1,2.2-1.5s1.8-0.5,2.9-0.5
	c1.2,0,2.4,0.2,3.4,0.6s2,0.9,2.9,1.5l-1.7,3.2c-0.6-0.5-1.2-0.9-2-1.2s-1.5-0.4-2.3-0.4c-1,0-1.7,0.3-2.1,0.9
	c-0.5,0.6-0.7,1.3-0.7,2.1v1.2h9.1v15.9h-4.3V26.5h-4.7v12.6h-4.3V26.5H145.5z"/>
<path class="st0" d="M170.6,39.4c-1.4,0-2.6-0.2-3.7-0.7c-1.1-0.5-2-1.1-2.8-1.9c-0.8-0.8-1.4-1.7-1.8-2.8c-0.4-1-0.6-2.1-0.6-3.3
	s0.2-2.3,0.6-3.3c0.4-1,1-2,1.8-2.8s1.7-1.4,2.8-1.9s2.3-0.7,3.7-0.7s2.6,0.2,3.7,0.7c1.1,0.5,2,1.1,2.8,1.9s1.4,1.7,1.8,2.8
	c0.4,1,0.6,2.2,0.6,3.3c0,1.2-0.2,2.2-0.6,3.3c-0.4,1-1,2-1.7,2.8c-0.8,0.8-1.7,1.4-2.8,1.9C173.2,39.1,172,39.4,170.6,39.4z
	 M166.2,30.7c0,0.7,0.1,1.4,0.3,2s0.5,1.1,0.9,1.6c0.4,0.4,0.9,0.8,1.4,1s1.1,0.4,1.7,0.4c0.6,0,1.2-0.1,1.7-0.4
	c0.5-0.2,1-0.6,1.4-1s0.7-1,0.9-1.6s0.3-1.3,0.3-2s-0.1-1.4-0.3-2s-0.5-1.2-0.9-1.6c-0.4-0.4-0.9-0.8-1.4-1s-1.1-0.4-1.7-0.4
	c-0.6,0-1.2,0.1-1.7,0.4c-0.5,0.3-1,0.6-1.4,1.1c-0.4,0.4-0.7,1-0.9,1.6C166.3,29.3,166.2,30,166.2,30.7z"/>
<path class="st1" d="M5.7,14.1L25.3,2.8c2.3-1.3,5.1-1.3,7.3,0l19.6,11.3c2.3,1.3,3.7,3.7,3.7,6.4v22.6c0,2.6-1.4,5.1-3.7,6.4
	L32.6,60.7c-2.3,1.3-5.1,1.3-7.3,0L5.7,49.4C3.4,48.1,2,45.7,2,43.1V20.4C2,17.8,3.4,15.4,5.7,14.1z"/>
<path class="st0" d="M49,43.9L49,43.9L49,43.9L49,43.9z M27.4,46.1c-7.2-0.6-13-6.4-13.5-13.8c-0.5-8.1,5.7-15.1,13.8-15.6
	s15.2,5.7,15.7,13.9l0.1,1.3c0.5,7.4,2.8,9.1,4.3,10.5c-3-1.9-7.1-1.3-10.1,1l0,0c-1.5,1.1-3.2,1.9-4.9,2.4l0,0
	c-0.9,0.2-1.8,0.4-2.7,0.4C29.2,46.2,28.3,46.2,27.4,46.1z"/>
<circle class="st1" cx="28.9" cy="31.5" r="8.1"/>
</svg>
